<?xml version="1.0" encoding="utf-8"?>
<svg version="1.1" xmlns="http://www.w3.org/2000/svg" xmlns:xlink="http://www.w3.org/1999/xlink" x="0px" y="0px" width="18px" height="18px" viewBox="0 0 18 18" enable-background="new 0 0 18 18" xml:space="preserve">
  <circle fill="#828686" stroke="#FFFFFF" stroke-width="0.5" stroke-miterlimit="10" cx="9" cy="9" r="8.75" />
  <rect x="3.5" y="7.5" fill="#828686" stroke="#FFFFFF" stroke-miterlimit="10" width="11" height="6" />
  <g>
    <line fill="#828686" x1="6" y1="9" x2="6" y2="12" />
    <g>
      <path fill="#FFFFFF" d="M5.5,9c0,1,0,2,0,3c0,0.35,1,0.35,1,0c0-1,0-2,0-3C6.5,8.65,5.5,8.65,5.5,9L5.5,9z" />
    </g>
  </g>
  <g>
    <line fill="#828686" x1="9" y1="9" x2="9" y2="12" />
    <g>
      <path fill="#FFFFFF" d="M8.5,9c0,1,0,2,0,3c0,0.35,1,0.35,1,0c0-1,0-2,0-3C9.5,8.65,8.5,8.65,8.5,9L8.5,9z" />
    </g>
  </g>
  <g>
    <line fill="#828686" x1="12" y1="9" x2="12" y2="12" />
    <g>
      <path fill="#FFFFFF" d="M11.5,9c0,1,0,2,0,3c0,0.35,1,0.35,1,0c0-1,0-2,0-3C12.5,8.65,11.5,8.65,11.5,9L11.5,9z" />
    </g>
  </g>
  <polyline fill="#828686" stroke="#FFFFFF" stroke-linecap="round" stroke-linejoin="round" stroke-miterlimit="10" points="5.5,3 
    5.5,6 4,4.5 5.5,6 7,4.5 	" />
  <polyline fill="#828686" stroke="#FFFFFF" stroke-linecap="round" stroke-linejoin="round" stroke-miterlimit="10" points="12.5,6 
    12.5,3 11,4.5 12.5,3 14,4.5 	" />
</svg>
