<?xml version="1.0" encoding="UTF-8"?>
<svg width="671.89" height="92.099" enable-background="new 0 0 708.66 283.46" version="1.1" viewBox="0 0 671.89 92.099" xml:space="preserve" xmlns="http://www.w3.org/2000/svg">
<g transform="translate(-18.308,-95.761)"><g fill="#28285b"><path d="m38.584 104.72v75.624h-20.276v-75.624z"/><path d="m114.21 158.31v-53.589h18.725v75.624h-24.623l-36.829-51.726v51.726h-18.829v-75.624h24.001z"/><path d="m147 104.72h44.279c5.586 0 10.464 0.5 14.638 1.5 4.172 1.001 7.656 2.897 10.449 5.69 2.794 2.792 4.896 6.639 6.311 11.535 1.413 4.897 2.121 11.276 2.121 19.139 0 7.862-0.708 14.242-2.121 19.139-1.415 4.897-3.517 8.726-6.311 11.483-2.793 2.759-6.277 4.639-10.449 5.639-4.173 1-9.052 1.499-14.638 1.499h-44.279zm20.277 58.968h23.897c2.551 0 4.707-0.311 6.466-0.932 1.759-0.62 3.171-1.707 4.242-3.258 1.068-1.553 1.826-3.69 2.276-6.415 0.447-2.724 0.673-6.223 0.673-10.5 0-4.275-0.243-7.793-0.725-10.553-0.483-2.758-1.26-4.93-2.328-6.517-1.07-1.586-2.483-2.672-4.242-3.259-1.758-0.585-3.879-0.879-6.363-0.879h-23.897v42.313z"/><path d="m272.9 181.9c-8.346 0-15.139-0.708-20.38-2.12-5.242-1.413-9.328-3.689-12.259-6.828-2.932-3.138-4.932-7.19-6-12.156-1.07-4.965-1.604-11.033-1.604-18.207 0-7.103 0.534-13.155 1.604-18.156 1.068-5 3.068-9.067 6-12.208 2.931-3.137 7.017-5.413 12.259-6.827 5.241-1.413 12.035-2.122 20.38-2.122 8.344 0 15.138 0.708 20.38 2.122 5.241 1.414 9.327 3.69 12.259 6.827 2.931 3.141 4.931 7.209 6 12.208 1.068 5 1.604 11.053 1.604 18.156 0 7.174-0.536 13.242-1.604 18.207-1.07 4.966-3.069 9.019-6 12.156-2.932 3.139-7.018 5.415-12.259 6.828-5.242 1.412-12.036 2.12-20.38 2.12zm0-61.865c-4.345 0-7.846 0.38-10.5 1.138-2.656 0.76-4.707 2.018-6.155 3.776-1.449 1.759-2.416 4.086-2.896 6.984-0.483 2.896-0.725 6.449-0.725 10.655 0 4.207 0.241 7.76 0.725 10.655 0.481 2.897 1.448 5.225 2.896 6.982 1.448 1.76 3.5 3.02 6.155 3.777 2.655 0.76 6.156 1.138 10.5 1.138 4.345 0 7.844-0.378 10.5-1.138 2.655-0.758 4.708-2.018 6.156-3.777 1.448-1.758 2.413-4.085 2.896-6.982 0.481-2.896 0.724-6.448 0.724-10.655s-0.242-7.759-0.724-10.655c-0.484-2.898-1.449-5.225-2.896-6.984-1.448-1.758-3.501-3.016-6.156-3.776-2.656-0.758-6.155-1.138-10.5-1.138z"/><path d="m361.25 181.9c-8.346 0-15.14-0.708-20.38-2.12-5.243-1.413-9.329-3.689-12.26-6.828-2.932-3.138-4.932-7.19-6.001-12.156-1.069-4.965-1.603-11.033-1.603-18.207 0-7.103 0.534-13.155 1.603-18.156 1.069-5 3.069-9.067 6.001-12.208 2.931-3.137 7.017-5.413 12.26-6.827 5.24-1.413 12.034-2.122 20.38-2.122 8.344 0 15.138 0.708 20.38 2.122 5.241 1.414 9.327 3.69 12.26 6.827 2.93 3.141 4.931 7.209 6 12.208 1.067 5 1.604 11.053 1.604 18.156 0 7.174-0.536 13.242-1.604 18.207-1.069 4.966-3.07 9.019-6 12.156-2.933 3.139-7.019 5.415-12.26 6.828-5.242 1.412-12.036 2.12-20.38 2.12zm0-61.865c-4.346 0-7.847 0.38-10.5 1.138-2.657 0.76-4.708 2.018-6.156 3.776-1.448 1.759-2.416 4.086-2.897 6.984-0.483 2.896-0.725 6.449-0.725 10.655 0 4.207 0.241 7.76 0.725 10.655 0.481 2.897 1.449 5.225 2.897 6.982 1.448 1.76 3.499 3.02 6.156 3.777 2.653 0.76 6.154 1.138 10.5 1.138 4.345 0 7.845-0.378 10.5-1.138 2.654-0.758 4.707-2.018 6.156-3.777 1.448-1.758 2.413-4.085 2.896-6.982 0.481-2.896 0.724-6.448 0.724-10.655s-0.242-7.759-0.724-10.655c-0.483-2.898-1.448-5.225-2.896-6.984-1.449-1.758-3.502-3.016-6.156-3.776-2.655-0.758-6.155-1.138-10.5-1.138z"/><path d="m432.73 155.31v25.035h-20.277v-75.624h47.381c3.793 0 7.433 0.294 10.915 0.879 3.482 0.587 6.569 1.724 9.259 3.414 2.69 1.691 4.827 4.086 6.415 7.19 1.585 3.104 2.379 7.138 2.379 12.104 0 4.345-0.621 7.966-1.862 10.863-1.241 2.896-2.967 5.242-5.172 7.034 2.344 1.174 4.189 2.813 5.534 4.915 1.345 2.104 2.017 4.879 2.017 8.327v20.897h-20.276v-18.621c0-2.413-0.501-4.087-1.5-5.018-1-0.931-3.122-1.396-6.362-1.396h-28.451zm36.621-24.622c0-1.929-0.225-3.499-0.671-4.707-0.449-1.206-1.07-2.155-1.863-2.845-0.793-0.688-1.725-1.154-2.793-1.396-1.069-0.241-2.224-0.362-3.466-0.362h-27.828v18.725h27.828c1.242 0 2.396-0.137 3.466-0.414 1.068-0.274 2-0.758 2.793-1.448 0.793-0.688 1.414-1.638 1.863-2.845 0.447-1.207 0.671-2.777 0.671-4.708z"/></g><path d="m610.92 187.86-79.27-15.491v-21.255l79.27 15.491z" fill="#6667ad"/><path d="m610.92 166.6 79.271-15.491v21.255l-79.271 15.491z" fill="#28285b"/><polygon points="531.65 151.08 610.92 166.58 690.19 151.08 610.92 136.07" fill="#28285b" opacity=".35"/><path d="m610.92 147.55-79.27-15.492v-21.255l79.27 15.492z" fill="#6667ad"/><path d="m610.92 126.29 79.271-15.492v21.255l-79.271 15.492z" fill="#28285b"/><polygon points="531.65 110.77 610.92 126.26 690.19 110.77 610.92 95.761" fill="#28285b" opacity=".35"/></g>
</svg>
